<?xml version="1.0" encoding="UTF-8" standalone="no"?>
<svg
        width="32"
        height="32"
        version="1.1"
        xmlns="http://www.w3.org/2000/svg"
>
    <style> <![CDATA[
        path {
            fill: #e3e3e3;
        }
        ]]>
    </style>
    <path d="m 28.067798,20.292952 c 0,0 -2.035094,8.619437 -11.79661,8.454385 C 6.9156096,28.589148 3.9322036,21.018523 3.9322036,21.018523 l 3.661017,-1.762711 c 0,0 1.900225,5.669173 8.6779674,5.830508 5.696328,0.135593 8.271186,-5.878114 8.271186,-5.878114 l -2.983051,-1.220339 5.956939,-3.074666 3.2634,6.057718 z"
    />
    <path d="m 4.7457626,12.115402 c 0,0 1.4927214,-9.0262171 11.2542374,-8.8611647 9.355578,0.1581887 12.338984,7.7288137 12.338984,7.7288137 l -3.661017,1.762711 c 0,0 -1.900225,-5.669173 -8.677967,-5.8305078 C 10.303672,6.779661 8.4067794,12.522181 8.4067794,12.522181 l 2.8474576,0.949153 -5.6857523,3.752633 -3.805773,-5.379752 z"
    />
</svg>
